<svg xmlns="http://www.w3.org/2000/svg" width="243.266" height="52" viewBox="0 0 243.266 52"><g style="isolation:isolate"><g transform="translate(0 0)"><path d="M0,46.7a4.48,4.48,0,0,0,4.51,4.445h8.2a4.48,4.48,0,0,0,4.51-4.445V41.159h.351a17.926,17.926,0,0,0,5.8-.924,21.9,21.9,0,0,0,3.573-1.616L24.953,45.2a4.281,4.281,0,0,0-.293,1.5,4.48,4.48,0,0,0,4.51,4.445h8.845a4.547,4.547,0,0,0,4.042-3.175l1.523-4.965H48.5l1.347,4.676a4.418,4.418,0,0,0,4.159,3.406h8.786a2.021,2.021,0,0,0,.586-.058c.234,0,.41.058.644.058H84.877a6.454,6.454,0,0,0,1.523-.231,4.426,4.426,0,0,0,1.523.231h8.2a4.48,4.48,0,0,0,4.51-4.445V41.159h.293a17.926,17.926,0,0,0,5.8-.924,17.54,17.54,0,0,0,4.745-2.425V46.7a4.48,4.48,0,0,0,4.51,4.445h8.2a4.48,4.48,0,0,0,4.51-4.445V25.053h1.816v21.59a4.48,4.48,0,0,0,4.51,4.445h8.2a4.48,4.48,0,0,0,4.51-4.445V25.053h3.632a4.48,4.48,0,0,0,4.51-4.445V13.1a4.48,4.48,0,0,0-4.51-4.445H126.817a3.482,3.482,0,0,0-1.347.231,5.056,5.056,0,0,0-1.347-.231h-8.2a4.459,4.459,0,0,0-4.393,3.464,17.986,17.986,0,0,0-10.778-3.464H87.864a4.48,4.48,0,0,0-4.51,4.445V35.5H76.735V13.1a4.48,4.48,0,0,0-4.51-4.445h-8.2a4.48,4.48,0,0,0-4.51,4.445v7.158l-2.46-8.2a4.446,4.446,0,0,0-2.987-3.175,5.959,5.959,0,0,0-1.406-.231h-13.3a3.99,3.99,0,0,0-1.406.231,4.492,4.492,0,0,0-2.929,2.944l-2.05,6.812c-.117-.289-.176-.577-.293-.866a13.016,13.016,0,0,0-4.159-5.484A17.9,17.9,0,0,0,17.456,8.6H4.51A4.568,4.568,0,0,0,0,13.1" transform="translate(0 -3.649)"/><g transform="translate(149.032)"><path d="M384.6,26.611a4.437,4.437,0,0,0,2.577-4.041,14.674,14.674,0,0,0-1.054-5.6,12.669,12.669,0,0,0-3.28-4.618,14.221,14.221,0,0,0-4.979-2.886,18.76,18.76,0,0,0-5.8-.866h-9.255a20.975,20.975,0,0,0-5.916.75,12.646,12.646,0,0,0-5.038,2.6,15.38,15.38,0,0,0-1.7,1.674c1.757,4.33,1.7,9.814-1.054,15.991a4.447,4.447,0,0,0,.82,2.656,5.075,5.075,0,0,0,.469.577A4.453,4.453,0,0,0,347.4,37.06a16.367,16.367,0,0,0,1,5.773,10.99,10.99,0,0,0,3.339,4.734,13.38,13.38,0,0,0,4.979,2.713,20.375,20.375,0,0,0,5.8.808h9.431a19.252,19.252,0,0,0,5.916-.866,13.853,13.853,0,0,0,5.038-2.829h0a12.16,12.16,0,0,0,3.28-4.965,17.714,17.714,0,0,0,.937-6,21.348,21.348,0,0,0-.879-6.466A10.544,10.544,0,0,0,384.6,26.611Z" transform="translate(-292.939 -3.649)"/><path d="M310.819,24.66a10.606,10.606,0,0,0,.527-4.272A12.761,12.761,0,0,0,310.233,16a4.345,4.345,0,0,1,.059-3.81,11.676,11.676,0,0,1,1.23-2.02l.117-.115c-4.159-10.449-18.334-14.2-28-4.1-18.92-19.685-55,13.393,0,46.067,15.113-9.006,23.372-18.011,26.945-25.92a10.628,10.628,0,0,1,.234-1.443Z" transform="translate(-254.425 -0.023)"/><path d="M350.915,17.4l-.117.115a11.676,11.676,0,0,0-1.23,2.02,4.344,4.344,0,0,0-.059,3.81,11.568,11.568,0,0,1,1.113,4.387,10.605,10.605,0,0,1-.527,4.272h0a3.532,3.532,0,0,0-.234,1.328C352.614,27.214,352.614,21.73,350.915,17.4Z" transform="translate(-293.642 -7.369)"/></g><path d="M286.818,50.474c-8.376-5.484-14.585-10.68-18.627-15.76-17.1-21.417,5.916-39.255,18.627-19.281C300.466-4.31,322.549,13.3,305.445,34.714,301.4,39.737,295.253,44.932,286.818,50.474Z" transform="translate(-108.571 -2.861)" fill="#8fc5ec" fill-rule="evenodd"/><path d="M292.02,28.861l2.753-6.061C286.1,28,274.33,32.614,259.1,36.6a49.234,49.234,0,0,0,12.887,15.529l11.422-3.291,10.544-4.272,4.92-3-5.565-5.773Z" transform="translate(-107.33 -9.651)" fill="#fff" fill-rule="evenodd"/><path d="M326.924,39.648A13.625,13.625,0,1,0,313.1,26.024,13.75,13.75,0,0,0,326.924,39.648Z" transform="translate(-129.699 -5.255)" fill-rule="evenodd"/><path d="M329.409,38.72A10.161,10.161,0,1,0,319.1,28.56,10.251,10.251,0,0,0,329.409,38.72Z" transform="translate(-132.184 -7.791)" fill="#d68500" fill-rule="evenodd"/><path d="M289.312,24.3l2.285-4.5c-12.887,7.5-26.828,12.7-41.3,16.8C263.714,33.886,276.776,30.249,289.312,24.3Z" transform="translate(-103.684 -8.383)" fill-rule="evenodd"/><path d="M290.526,37.8c.644-1.27,0-1.674.644-3-11.071,6.466-22.552,9.583-34.97,13.047C267.681,45.538,279.747,42.882,290.526,37.8Z" transform="translate(-106.128 -14.724)" fill-rule="evenodd"/><path d="M297.068,47.767c.644-1.328-1.23-1.039-.586-2.367A103.681,103.681,0,0,1,264.5,57.7C274.634,56.253,286.817,53.309,297.068,47.767Z" transform="translate(-109.567 -19.205)" fill-rule="evenodd"/><path d="M343.627,27.638a8.275,8.275,0,0,1,1.171,4.33,8.515,8.515,0,0,1-6.853,8.313,1.427,1.427,0,1,1-.879-2.713,5.735,5.735,0,0,0,3.749-9.063C340.054,26.888,342.514,25.618,343.627,27.638Z" transform="translate(-139.197 -11.257)" fill="#fff" fill-rule="evenodd"/><path d="M330.682,44.4a1.559,1.559,0,1,1-1.582,1.559A1.564,1.564,0,0,1,330.682,44.4Z" transform="translate(-136.326 -18.782)" fill="#fff" fill-rule="evenodd"/><path d="M306.834,54.709c.586-1.328-1.289-.981-.7-2.309A105.194,105.194,0,0,1,274.5,65.562C284.634,63.773,296.759,60.54,306.834,54.709Z" transform="translate(-113.709 -22.164)" fill-rule="evenodd"/></g><g transform="translate(4.452 9.454)"><path d="M32.495,28.061a18.5,18.5,0,0,0-.117-1.905A9.622,9.622,0,0,0,28.8,19.171,13.464,13.464,0,0,0,20.487,16.4H7.6V49.94h8.2V39.953h4.92A13.483,13.483,0,0,0,28.98,37.24c1.992-1.5,3.163-3.926,3.515-7.158ZM20.955,31.987H16.269v-7.5h4.51a4.515,4.515,0,0,1,3.1.866,3.8,3.8,0,0,1,.937,2.944C24.821,30.717,23.533,31.987,20.955,31.987Z" transform="translate(-7.6 -16.4)" fill="#fff"/><path d="M66.611,16.4H59.992L49.917,49.652,49.8,50h8.552l2.519-8.14H72.527L74.871,50h8.552L73.172,16.4Zm0,18.762H62.862L66.611,22.75h0L70.36,35.162Z" transform="translate(-25.081 -16.4)" fill="#fff"/><path d="M171.1,19.171a13.464,13.464,0,0,0-8.318-2.771H149.9V49.94h8.2V39.953h4.862a13.482,13.482,0,0,0,8.259-2.713c2.4-1.847,3.573-4.907,3.573-9.179C174.736,23.962,173.565,21.018,171.1,19.171ZM163.2,31.987h-4.686v-7.5h4.51a4.515,4.515,0,0,1,3.1.866,3.8,3.8,0,0,1,.937,2.944C167.063,30.717,165.774,31.987,163.2,31.987Z" transform="translate(-66.546 -16.4)" fill="#fff"/><path d="M383.324,31.567c-1.816-1.443-4.745-2.136-8.845-2.136H367.8c-1.406,0-2.284-.231-2.695-.75a3.723,3.723,0,0,1-.586-2.367,2.975,2.975,0,0,1,.879-2.482,4.284,4.284,0,0,1,2.46-.635h6.033q3.339,0,3.339,2.771h8.786a8.823,8.823,0,0,0-2.87-6.927c-1.874-1.732-4.452-2.54-7.732-2.54h-9.255q-5.272,0-8.083,2.251a7.138,7.138,0,0,0-1.875,2.425,16.051,16.051,0,0,1,.761,11.892,4.474,4.474,0,0,0,1.054,1.039c1.816,1.328,5.1,2.02,9.9,2.02h5.74a4.293,4.293,0,0,1,2.812.866,3.433,3.433,0,0,1,1.054,2.829c0,1.385-.293,2.309-.937,2.771a4.448,4.448,0,0,1-2.636.75h-6.209a4.693,4.693,0,0,1-2.87-.808,2.457,2.457,0,0,1-1.054-2.078H355.5c0,3.175.937,5.6,2.753,7.158s4.452,2.367,7.791,2.367h9.431c3.4,0,6.033-.808,7.849-2.482,1.874-1.674,2.753-4.214,2.753-7.736C386.018,35.724,385.14,33.01,383.324,31.567Z" transform="translate(-151.714 -16.442)" fill="#fff"/><path d="M216.5,23.9h8.142V50h8.2V23.9h8.2V16.4H216.5Z" transform="translate(-94.135 -16.4)" fill="#fff"/><rect width="8.201" height="33.54" transform="translate(111.47 0)" fill="#fff"/><path d="M117.4,16.4h-8.2V50h20.853V43.244H117.4Z" transform="translate(-49.687 -16.4)" fill="#fff"/></g></g></svg>